<mxfile host="app.diagrams.net" agent="Mozilla/5.0 (Windows NT 10.0; Win64; x64) AppleWebKit/537.36 (KHTML, like Gecko) Chrome/131.0.0.0 Safari/537.36" version="25.0.3">
  <diagram name="第 1 页" id="EST4n6KrNAAQWZ7GJDBB">
    <mxGraphModel dx="1680" dy="987" grid="1" gridSize="10" guides="1" tooltips="1" connect="1" arrows="1" fold="1" page="1" pageScale="1" pageWidth="827" pageHeight="1169" math="0" shadow="0">
      <root>
        <mxCell id="0" />
        <mxCell id="1" parent="0" />
        <mxCell id="PrRYFuYAHpO90THGvWZs-28" value="" style="group" vertex="1" connectable="0" parent="1">
          <mxGeometry x="40" y="40" width="160" height="160" as="geometry" />
        </mxCell>
        <mxCell id="PrRYFuYAHpO90THGvWZs-1" value="" style="ellipse;whiteSpace=wrap;html=1;fillColor=none;aspect=fixed;" vertex="1" parent="PrRYFuYAHpO90THGvWZs-28">
          <mxGeometry y="25.6" width="94.81481481481481" height="94.81481481481481" as="geometry" />
        </mxCell>
        <mxCell id="PrRYFuYAHpO90THGvWZs-2" value="" style="ellipse;whiteSpace=wrap;html=1;fillColor=none;aspect=fixed;" vertex="1" parent="PrRYFuYAHpO90THGvWZs-28">
          <mxGeometry x="29.629629629629626" width="94.81481481481481" height="94.81481481481481" as="geometry" />
        </mxCell>
        <mxCell id="PrRYFuYAHpO90THGvWZs-4" value="" style="ellipse;whiteSpace=wrap;html=1;fillColor=none;aspect=fixed;" vertex="1" parent="PrRYFuYAHpO90THGvWZs-28">
          <mxGeometry x="65.18518518518518" y="25.6" width="94.81481481481481" height="94.81481481481481" as="geometry" />
        </mxCell>
        <mxCell id="PrRYFuYAHpO90THGvWZs-5" value="" style="ellipse;whiteSpace=wrap;html=1;fillColor=none;aspect=fixed;" vertex="1" parent="PrRYFuYAHpO90THGvWZs-28">
          <mxGeometry x="11.851851851851851" y="57.6" width="94.81481481481481" height="94.81481481481481" as="geometry" />
        </mxCell>
        <mxCell id="PrRYFuYAHpO90THGvWZs-6" value="" style="ellipse;whiteSpace=wrap;html=1;fillColor=none;aspect=fixed;" vertex="1" parent="PrRYFuYAHpO90THGvWZs-28">
          <mxGeometry x="59.25925925925925" y="57.6" width="94.81481481481481" height="94.81481481481481" as="geometry" />
        </mxCell>
        <mxCell id="PrRYFuYAHpO90THGvWZs-8" value="" style="ellipse;whiteSpace=wrap;html=1;fillColor=#FF66B3;aspect=fixed;" vertex="1" parent="PrRYFuYAHpO90THGvWZs-28">
          <mxGeometry x="68.1874074074074" y="62.99999999999999" width="4.7407407407407405" height="4.7407407407407405" as="geometry" />
        </mxCell>
        <mxCell id="PrRYFuYAHpO90THGvWZs-29" value="" style="group" vertex="1" connectable="0" parent="1">
          <mxGeometry x="240" y="40" width="160" height="160" as="geometry" />
        </mxCell>
        <mxCell id="PrRYFuYAHpO90THGvWZs-11" value="" style="ellipse;whiteSpace=wrap;html=1;aspect=fixed;fillColor=none;strokeColor=#6c8ebf;strokeWidth=3;" vertex="1" parent="PrRYFuYAHpO90THGvWZs-29">
          <mxGeometry x="29.629629629629623" width="92.44444444444443" height="92.44444444444443" as="geometry" />
        </mxCell>
        <mxCell id="PrRYFuYAHpO90THGvWZs-10" value="" style="ellipse;whiteSpace=wrap;html=1;aspect=fixed;fillColor=none;" vertex="1" parent="PrRYFuYAHpO90THGvWZs-29">
          <mxGeometry y="25.6" width="92.44444444444443" height="92.44444444444443" as="geometry" />
        </mxCell>
        <mxCell id="PrRYFuYAHpO90THGvWZs-12" value="" style="ellipse;whiteSpace=wrap;html=1;aspect=fixed;fillColor=none;" vertex="1" parent="PrRYFuYAHpO90THGvWZs-29">
          <mxGeometry x="65.18518518518518" y="25.6" width="92.44444444444443" height="92.44444444444443" as="geometry" />
        </mxCell>
        <mxCell id="PrRYFuYAHpO90THGvWZs-13" value="" style="ellipse;whiteSpace=wrap;html=1;aspect=fixed;fillColor=none;" vertex="1" parent="PrRYFuYAHpO90THGvWZs-29">
          <mxGeometry x="11.85185185185185" y="57.6" width="92.44444444444443" height="92.44444444444443" as="geometry" />
        </mxCell>
        <mxCell id="PrRYFuYAHpO90THGvWZs-14" value="" style="ellipse;whiteSpace=wrap;html=1;aspect=fixed;fillColor=none;" vertex="1" parent="PrRYFuYAHpO90THGvWZs-29">
          <mxGeometry x="59.259259259259245" y="57.6" width="92.44444444444443" height="92.44444444444443" as="geometry" />
        </mxCell>
        <mxCell id="PrRYFuYAHpO90THGvWZs-15" value="" style="ellipse;whiteSpace=wrap;html=1;aspect=fixed;fillColor=#FF66B3;" vertex="1" parent="PrRYFuYAHpO90THGvWZs-29">
          <mxGeometry x="68.40740740740739" y="62.239999999999995" width="4.622222222222222" height="4.622222222222222" as="geometry" />
        </mxCell>
        <mxCell id="PrRYFuYAHpO90THGvWZs-30" value="" style="group" vertex="1" connectable="0" parent="1">
          <mxGeometry x="240" y="200" width="160" height="480" as="geometry" />
        </mxCell>
        <mxCell id="PrRYFuYAHpO90THGvWZs-16" value="" style="ellipse;whiteSpace=wrap;html=1;aspect=fixed;fillColor=none;strokeColor=#6c8ebf;strokeWidth=3;align=center;verticalAlign=middle;fontFamily=Helvetica;fontSize=12;fontColor=default;" vertex="1" parent="PrRYFuYAHpO90THGvWZs-30">
          <mxGeometry y="25.6" width="89.23747276688452" height="89.23747276688452" as="geometry" />
        </mxCell>
        <mxCell id="PrRYFuYAHpO90THGvWZs-17" value="" style="ellipse;whiteSpace=wrap;html=1;aspect=fixed;fillColor=none;" vertex="1" parent="PrRYFuYAHpO90THGvWZs-30">
          <mxGeometry x="29.629629629629626" width="89.23747276688452" height="89.23747276688452" as="geometry" />
        </mxCell>
        <mxCell id="PrRYFuYAHpO90THGvWZs-18" value="" style="ellipse;whiteSpace=wrap;html=1;aspect=fixed;fillColor=none;" vertex="1" parent="PrRYFuYAHpO90THGvWZs-30">
          <mxGeometry x="65.18518518518518" y="25.6" width="89.23747276688452" height="89.23747276688452" as="geometry" />
        </mxCell>
        <mxCell id="PrRYFuYAHpO90THGvWZs-19" value="" style="ellipse;whiteSpace=wrap;html=1;aspect=fixed;fillColor=none;" vertex="1" parent="PrRYFuYAHpO90THGvWZs-30">
          <mxGeometry x="11.851851851851851" y="57.6" width="89.23747276688452" height="89.23747276688452" as="geometry" />
        </mxCell>
        <mxCell id="PrRYFuYAHpO90THGvWZs-20" value="" style="ellipse;whiteSpace=wrap;html=1;aspect=fixed;fillColor=none;" vertex="1" parent="PrRYFuYAHpO90THGvWZs-30">
          <mxGeometry x="59.25925925925925" y="57.6" width="89.23747276688452" height="89.23747276688452" as="geometry" />
        </mxCell>
        <mxCell id="PrRYFuYAHpO90THGvWZs-21" value="" style="ellipse;whiteSpace=wrap;html=1;aspect=fixed;fillColor=#FF66B3;" vertex="1" parent="PrRYFuYAHpO90THGvWZs-30">
          <mxGeometry x="67.1874074074074" y="63.00000000000001" width="4.461873638344226" height="4.461873638344226" as="geometry" />
        </mxCell>
        <mxCell id="PrRYFuYAHpO90THGvWZs-32" value="" style="group" vertex="1" connectable="0" parent="PrRYFuYAHpO90THGvWZs-30">
          <mxGeometry y="160" width="160" height="160" as="geometry" />
        </mxCell>
        <mxCell id="PrRYFuYAHpO90THGvWZs-25" value="" style="ellipse;whiteSpace=wrap;html=1;aspect=fixed;fillColor=none;strokeColor=#6c8ebf;strokeWidth=3;align=center;verticalAlign=middle;fontFamily=Helvetica;fontSize=12;fontColor=default;" vertex="1" parent="PrRYFuYAHpO90THGvWZs-32">
          <mxGeometry x="11.851851851851851" y="57.6" width="94.81481481481481" height="94.81481481481481" as="geometry" />
        </mxCell>
        <mxCell id="PrRYFuYAHpO90THGvWZs-22" value="" style="ellipse;whiteSpace=wrap;html=1;aspect=fixed;fillColor=none;" vertex="1" parent="PrRYFuYAHpO90THGvWZs-32">
          <mxGeometry y="25.6" width="94.81481481481481" height="94.81481481481481" as="geometry" />
        </mxCell>
        <mxCell id="PrRYFuYAHpO90THGvWZs-23" value="" style="ellipse;whiteSpace=wrap;html=1;aspect=fixed;fillColor=none;" vertex="1" parent="PrRYFuYAHpO90THGvWZs-32">
          <mxGeometry x="29.629629629629626" width="94.81481481481481" height="94.81481481481481" as="geometry" />
        </mxCell>
        <mxCell id="PrRYFuYAHpO90THGvWZs-24" value="" style="ellipse;whiteSpace=wrap;html=1;aspect=fixed;fillColor=none;" vertex="1" parent="PrRYFuYAHpO90THGvWZs-32">
          <mxGeometry x="65.18518518518518" y="25.6" width="94.81481481481481" height="94.81481481481481" as="geometry" />
        </mxCell>
        <mxCell id="PrRYFuYAHpO90THGvWZs-26" value="" style="ellipse;whiteSpace=wrap;html=1;aspect=fixed;fillColor=none;" vertex="1" parent="PrRYFuYAHpO90THGvWZs-32">
          <mxGeometry x="59.25925925925925" y="57.6" width="94.81481481481481" height="94.81481481481481" as="geometry" />
        </mxCell>
        <mxCell id="PrRYFuYAHpO90THGvWZs-27" value="" style="ellipse;whiteSpace=wrap;html=1;aspect=fixed;fillColor=#FF66B3;" vertex="1" parent="PrRYFuYAHpO90THGvWZs-32">
          <mxGeometry x="68.1874074074074" y="62.99999999999999" width="4.7407407407407405" height="4.7407407407407405" as="geometry" />
        </mxCell>
        <mxCell id="PrRYFuYAHpO90THGvWZs-41" value="" style="group;fillColor=none;" vertex="1" connectable="0" parent="PrRYFuYAHpO90THGvWZs-30">
          <mxGeometry y="320" width="160" height="160" as="geometry" />
        </mxCell>
        <mxCell id="PrRYFuYAHpO90THGvWZs-45" value="" style="ellipse;whiteSpace=wrap;html=1;aspect=fixed;fillColor=none;strokeColor=#6c8ebf;strokeWidth=3;align=center;verticalAlign=middle;fontFamily=Helvetica;fontSize=12;fontColor=default;" vertex="1" parent="PrRYFuYAHpO90THGvWZs-41">
          <mxGeometry x="65.18518518518518" y="25.6" width="94.81481481481481" height="94.81481481481481" as="geometry" />
        </mxCell>
        <mxCell id="PrRYFuYAHpO90THGvWZs-42" value="" style="ellipse;whiteSpace=wrap;html=1;aspect=fixed;fillColor=none;" vertex="1" parent="PrRYFuYAHpO90THGvWZs-41">
          <mxGeometry x="11.851851851851851" y="57.6" width="94.81481481481481" height="94.81481481481481" as="geometry" />
        </mxCell>
        <mxCell id="PrRYFuYAHpO90THGvWZs-43" value="" style="ellipse;whiteSpace=wrap;html=1;aspect=fixed;fillColor=none;" vertex="1" parent="PrRYFuYAHpO90THGvWZs-41">
          <mxGeometry y="25.6" width="94.81481481481481" height="94.81481481481481" as="geometry" />
        </mxCell>
        <mxCell id="PrRYFuYAHpO90THGvWZs-44" value="" style="ellipse;whiteSpace=wrap;html=1;aspect=fixed;fillColor=none;" vertex="1" parent="PrRYFuYAHpO90THGvWZs-41">
          <mxGeometry x="29.629629629629626" width="94.81481481481481" height="94.81481481481481" as="geometry" />
        </mxCell>
        <mxCell id="PrRYFuYAHpO90THGvWZs-46" value="" style="ellipse;whiteSpace=wrap;html=1;aspect=fixed;fillColor=none;" vertex="1" parent="PrRYFuYAHpO90THGvWZs-41">
          <mxGeometry x="59.25925925925925" y="57.6" width="94.81481481481481" height="94.81481481481481" as="geometry" />
        </mxCell>
        <mxCell id="PrRYFuYAHpO90THGvWZs-47" value="" style="ellipse;whiteSpace=wrap;html=1;aspect=fixed;fillColor=#FF66B3;" vertex="1" parent="PrRYFuYAHpO90THGvWZs-41">
          <mxGeometry x="68.1874074074074" y="62.99999999999999" width="4.7407407407407405" height="4.7407407407407405" as="geometry" />
        </mxCell>
        <mxCell id="PrRYFuYAHpO90THGvWZs-33" value="" style="group" vertex="1" connectable="0" parent="1">
          <mxGeometry x="414" y="40" width="160" height="160" as="geometry" />
        </mxCell>
        <mxCell id="PrRYFuYAHpO90THGvWZs-34" value="" style="ellipse;whiteSpace=wrap;html=1;fillColor=none;aspect=fixed;strokeColor=#82b366;strokeWidth=3;align=center;verticalAlign=middle;fontFamily=Helvetica;fontSize=12;fontColor=default;" vertex="1" parent="PrRYFuYAHpO90THGvWZs-33">
          <mxGeometry y="25.6" width="94.81481481481481" height="94.81481481481481" as="geometry" />
        </mxCell>
        <mxCell id="PrRYFuYAHpO90THGvWZs-35" value="" style="ellipse;whiteSpace=wrap;html=1;fillColor=none;aspect=fixed;strokeColor=#82b366;strokeWidth=3;" vertex="1" parent="PrRYFuYAHpO90THGvWZs-33">
          <mxGeometry x="29.629629629629626" width="94.81481481481481" height="94.81481481481481" as="geometry" />
        </mxCell>
        <mxCell id="PrRYFuYAHpO90THGvWZs-36" value="" style="ellipse;whiteSpace=wrap;html=1;fillColor=none;aspect=fixed;" vertex="1" parent="PrRYFuYAHpO90THGvWZs-33">
          <mxGeometry x="65.18518518518518" y="25.6" width="94.81481481481481" height="94.81481481481481" as="geometry" />
        </mxCell>
        <mxCell id="PrRYFuYAHpO90THGvWZs-37" value="" style="ellipse;whiteSpace=wrap;html=1;fillColor=none;aspect=fixed;" vertex="1" parent="PrRYFuYAHpO90THGvWZs-33">
          <mxGeometry x="11.851851851851851" y="57.6" width="94.81481481481481" height="94.81481481481481" as="geometry" />
        </mxCell>
        <mxCell id="PrRYFuYAHpO90THGvWZs-38" value="" style="ellipse;whiteSpace=wrap;html=1;fillColor=none;aspect=fixed;" vertex="1" parent="PrRYFuYAHpO90THGvWZs-33">
          <mxGeometry x="59.25925925925925" y="57.6" width="94.81481481481481" height="94.81481481481481" as="geometry" />
        </mxCell>
        <mxCell id="PrRYFuYAHpO90THGvWZs-39" value="" style="ellipse;whiteSpace=wrap;html=1;fillColor=#FF66B3;aspect=fixed;" vertex="1" parent="PrRYFuYAHpO90THGvWZs-33">
          <mxGeometry x="68.1874074074074" y="63.599999999999994" width="4.7407407407407405" height="4.7407407407407405" as="geometry" />
        </mxCell>
        <mxCell id="PrRYFuYAHpO90THGvWZs-48" value="" style="group" vertex="1" connectable="0" parent="1">
          <mxGeometry x="414" y="200" width="160" height="160" as="geometry" />
        </mxCell>
        <mxCell id="PrRYFuYAHpO90THGvWZs-49" value="" style="ellipse;whiteSpace=wrap;html=1;fillColor=none;aspect=fixed;strokeColor=#82b366;strokeWidth=3;align=center;verticalAlign=middle;fontFamily=Helvetica;fontSize=12;fontColor=default;" vertex="1" parent="PrRYFuYAHpO90THGvWZs-48">
          <mxGeometry y="25.6" width="94.81481481481481" height="94.81481481481481" as="geometry" />
        </mxCell>
        <mxCell id="PrRYFuYAHpO90THGvWZs-50" value="" style="ellipse;whiteSpace=wrap;html=1;fillColor=none;aspect=fixed;" vertex="1" parent="PrRYFuYAHpO90THGvWZs-48">
          <mxGeometry x="29.629629629629626" width="94.81481481481481" height="94.81481481481481" as="geometry" />
        </mxCell>
        <mxCell id="PrRYFuYAHpO90THGvWZs-51" value="" style="ellipse;whiteSpace=wrap;html=1;fillColor=none;aspect=fixed;" vertex="1" parent="PrRYFuYAHpO90THGvWZs-48">
          <mxGeometry x="65.18518518518518" y="25.6" width="94.81481481481481" height="94.81481481481481" as="geometry" />
        </mxCell>
        <mxCell id="PrRYFuYAHpO90THGvWZs-52" value="" style="ellipse;whiteSpace=wrap;html=1;fillColor=none;aspect=fixed;strokeColor=#82b366;strokeWidth=3;align=center;verticalAlign=middle;fontFamily=Helvetica;fontSize=12;fontColor=default;" vertex="1" parent="PrRYFuYAHpO90THGvWZs-48">
          <mxGeometry x="11.851851851851851" y="57.6" width="94.81481481481481" height="94.81481481481481" as="geometry" />
        </mxCell>
        <mxCell id="PrRYFuYAHpO90THGvWZs-53" value="" style="ellipse;whiteSpace=wrap;html=1;fillColor=none;aspect=fixed;" vertex="1" parent="PrRYFuYAHpO90THGvWZs-48">
          <mxGeometry x="59.25925925925925" y="57.6" width="94.81481481481481" height="94.81481481481481" as="geometry" />
        </mxCell>
        <mxCell id="PrRYFuYAHpO90THGvWZs-54" value="" style="ellipse;whiteSpace=wrap;html=1;fillColor=#FF66B3;aspect=fixed;" vertex="1" parent="PrRYFuYAHpO90THGvWZs-48">
          <mxGeometry x="68.1874074074074" y="62.99999999999999" width="4.7407407407407405" height="4.7407407407407405" as="geometry" />
        </mxCell>
        <mxCell id="PrRYFuYAHpO90THGvWZs-55" value="" style="group" vertex="1" connectable="0" parent="1">
          <mxGeometry x="414" y="360" width="160" height="160" as="geometry" />
        </mxCell>
        <mxCell id="PrRYFuYAHpO90THGvWZs-56" value="" style="ellipse;whiteSpace=wrap;html=1;fillColor=none;aspect=fixed;" vertex="1" parent="PrRYFuYAHpO90THGvWZs-55">
          <mxGeometry y="25.6" width="94.81481481481481" height="94.81481481481481" as="geometry" />
        </mxCell>
        <mxCell id="PrRYFuYAHpO90THGvWZs-57" value="" style="ellipse;whiteSpace=wrap;html=1;fillColor=none;aspect=fixed;" vertex="1" parent="PrRYFuYAHpO90THGvWZs-55">
          <mxGeometry x="29.629629629629626" width="94.81481481481481" height="94.81481481481481" as="geometry" />
        </mxCell>
        <mxCell id="PrRYFuYAHpO90THGvWZs-58" value="" style="ellipse;whiteSpace=wrap;html=1;fillColor=none;aspect=fixed;strokeColor=#82b366;strokeWidth=3;align=center;verticalAlign=middle;fontFamily=Helvetica;fontSize=12;fontColor=default;" vertex="1" parent="PrRYFuYAHpO90THGvWZs-55">
          <mxGeometry x="65.18518518518518" y="25.6" width="94.81481481481481" height="94.81481481481481" as="geometry" />
        </mxCell>
        <mxCell id="PrRYFuYAHpO90THGvWZs-59" value="" style="ellipse;whiteSpace=wrap;html=1;fillColor=none;aspect=fixed;strokeColor=#82b366;strokeWidth=3;align=center;verticalAlign=middle;fontFamily=Helvetica;fontSize=12;fontColor=default;" vertex="1" parent="PrRYFuYAHpO90THGvWZs-55">
          <mxGeometry x="11.851851851851851" y="57.6" width="94.81481481481481" height="94.81481481481481" as="geometry" />
        </mxCell>
        <mxCell id="PrRYFuYAHpO90THGvWZs-60" value="" style="ellipse;whiteSpace=wrap;html=1;fillColor=none;aspect=fixed;" vertex="1" parent="PrRYFuYAHpO90THGvWZs-55">
          <mxGeometry x="59.25925925925925" y="57.6" width="94.81481481481481" height="94.81481481481481" as="geometry" />
        </mxCell>
        <mxCell id="PrRYFuYAHpO90THGvWZs-61" value="" style="ellipse;whiteSpace=wrap;html=1;fillColor=#FF66B3;aspect=fixed;" vertex="1" parent="PrRYFuYAHpO90THGvWZs-55">
          <mxGeometry x="68.1874074074074" y="62.99999999999999" width="4.7407407407407405" height="4.7407407407407405" as="geometry" />
        </mxCell>
        <mxCell id="PrRYFuYAHpO90THGvWZs-63" value="" style="group" vertex="1" connectable="0" parent="1">
          <mxGeometry x="414" y="520" width="160" height="160" as="geometry" />
        </mxCell>
        <mxCell id="PrRYFuYAHpO90THGvWZs-64" value="" style="ellipse;whiteSpace=wrap;html=1;fillColor=none;aspect=fixed;" vertex="1" parent="PrRYFuYAHpO90THGvWZs-63">
          <mxGeometry y="25.6" width="94.81481481481481" height="94.81481481481481" as="geometry" />
        </mxCell>
        <mxCell id="PrRYFuYAHpO90THGvWZs-65" value="" style="ellipse;whiteSpace=wrap;html=1;fillColor=none;aspect=fixed;strokeColor=#82b366;strokeWidth=3;align=center;verticalAlign=middle;fontFamily=Helvetica;fontSize=12;fontColor=default;" vertex="1" parent="PrRYFuYAHpO90THGvWZs-63">
          <mxGeometry x="29.629629629629626" width="94.81481481481481" height="94.81481481481481" as="geometry" />
        </mxCell>
        <mxCell id="PrRYFuYAHpO90THGvWZs-66" value="" style="ellipse;whiteSpace=wrap;html=1;fillColor=none;aspect=fixed;strokeColor=#82b366;strokeWidth=3;align=center;verticalAlign=middle;fontFamily=Helvetica;fontSize=12;fontColor=default;" vertex="1" parent="PrRYFuYAHpO90THGvWZs-63">
          <mxGeometry x="65.18518518518518" y="25.6" width="94.81481481481481" height="94.81481481481481" as="geometry" />
        </mxCell>
        <mxCell id="PrRYFuYAHpO90THGvWZs-67" value="" style="ellipse;whiteSpace=wrap;html=1;fillColor=none;aspect=fixed;" vertex="1" parent="PrRYFuYAHpO90THGvWZs-63">
          <mxGeometry x="11.851851851851851" y="57.6" width="94.81481481481481" height="94.81481481481481" as="geometry" />
        </mxCell>
        <mxCell id="PrRYFuYAHpO90THGvWZs-68" value="" style="ellipse;whiteSpace=wrap;html=1;fillColor=none;aspect=fixed;" vertex="1" parent="PrRYFuYAHpO90THGvWZs-63">
          <mxGeometry x="59.25925925925925" y="57.6" width="94.81481481481481" height="94.81481481481481" as="geometry" />
        </mxCell>
        <mxCell id="PrRYFuYAHpO90THGvWZs-69" value="" style="ellipse;whiteSpace=wrap;html=1;fillColor=#FF66B3;aspect=fixed;" vertex="1" parent="PrRYFuYAHpO90THGvWZs-63">
          <mxGeometry x="68.1874074074074" y="62.99999999999999" width="4.7407407407407405" height="4.7407407407407405" as="geometry" />
        </mxCell>
        <mxCell id="PrRYFuYAHpO90THGvWZs-70" value="" style="group" vertex="1" connectable="0" parent="1">
          <mxGeometry x="414" y="680" width="160" height="160" as="geometry" />
        </mxCell>
        <mxCell id="PrRYFuYAHpO90THGvWZs-71" value="" style="ellipse;whiteSpace=wrap;html=1;fillColor=none;aspect=fixed;strokeColor=#82b366;strokeWidth=3;align=center;verticalAlign=middle;fontFamily=Helvetica;fontSize=12;fontColor=default;" vertex="1" parent="PrRYFuYAHpO90THGvWZs-70">
          <mxGeometry y="25.6" width="94.81481481481481" height="94.81481481481481" as="geometry" />
        </mxCell>
        <mxCell id="PrRYFuYAHpO90THGvWZs-72" value="" style="ellipse;whiteSpace=wrap;html=1;fillColor=none;aspect=fixed;" vertex="1" parent="PrRYFuYAHpO90THGvWZs-70">
          <mxGeometry x="29.629629629629626" width="94.81481481481481" height="94.81481481481481" as="geometry" />
        </mxCell>
        <mxCell id="PrRYFuYAHpO90THGvWZs-73" value="" style="ellipse;whiteSpace=wrap;html=1;fillColor=none;aspect=fixed;strokeColor=#82b366;strokeWidth=3;align=center;verticalAlign=middle;fontFamily=Helvetica;fontSize=12;fontColor=default;" vertex="1" parent="PrRYFuYAHpO90THGvWZs-70">
          <mxGeometry x="65.18518518518518" y="25.6" width="94.81481481481481" height="94.81481481481481" as="geometry" />
        </mxCell>
        <mxCell id="PrRYFuYAHpO90THGvWZs-74" value="" style="ellipse;whiteSpace=wrap;html=1;fillColor=none;aspect=fixed;" vertex="1" parent="PrRYFuYAHpO90THGvWZs-70">
          <mxGeometry x="11.851851851851851" y="57.6" width="94.81481481481481" height="94.81481481481481" as="geometry" />
        </mxCell>
        <mxCell id="PrRYFuYAHpO90THGvWZs-75" value="" style="ellipse;whiteSpace=wrap;html=1;fillColor=none;aspect=fixed;" vertex="1" parent="PrRYFuYAHpO90THGvWZs-70">
          <mxGeometry x="59.25925925925925" y="57.6" width="94.81481481481481" height="94.81481481481481" as="geometry" />
        </mxCell>
        <mxCell id="PrRYFuYAHpO90THGvWZs-76" value="" style="ellipse;whiteSpace=wrap;html=1;fillColor=#FF66B3;aspect=fixed;" vertex="1" parent="PrRYFuYAHpO90THGvWZs-70">
          <mxGeometry x="68.1874074074074" y="62.99999999999999" width="4.7407407407407405" height="4.7407407407407405" as="geometry" />
        </mxCell>
        <mxCell id="PrRYFuYAHpO90THGvWZs-77" value="" style="group" vertex="1" connectable="0" parent="1">
          <mxGeometry x="410" y="840" width="160" height="160" as="geometry" />
        </mxCell>
        <mxCell id="PrRYFuYAHpO90THGvWZs-78" value="" style="ellipse;whiteSpace=wrap;html=1;fillColor=none;aspect=fixed;" vertex="1" parent="PrRYFuYAHpO90THGvWZs-77">
          <mxGeometry y="25.6" width="94.81481481481481" height="94.81481481481481" as="geometry" />
        </mxCell>
        <mxCell id="PrRYFuYAHpO90THGvWZs-79" value="" style="ellipse;whiteSpace=wrap;html=1;fillColor=none;aspect=fixed;strokeColor=#82b366;strokeWidth=3;align=center;verticalAlign=middle;fontFamily=Helvetica;fontSize=12;fontColor=default;" vertex="1" parent="PrRYFuYAHpO90THGvWZs-77">
          <mxGeometry x="29.629629629629626" width="94.81481481481481" height="94.81481481481481" as="geometry" />
        </mxCell>
        <mxCell id="PrRYFuYAHpO90THGvWZs-80" value="" style="ellipse;whiteSpace=wrap;html=1;fillColor=none;aspect=fixed;" vertex="1" parent="PrRYFuYAHpO90THGvWZs-77">
          <mxGeometry x="65.18518518518518" y="25.6" width="94.81481481481481" height="94.81481481481481" as="geometry" />
        </mxCell>
        <mxCell id="PrRYFuYAHpO90THGvWZs-81" value="" style="ellipse;whiteSpace=wrap;html=1;fillColor=none;aspect=fixed;strokeColor=#82b366;strokeWidth=3;align=center;verticalAlign=middle;fontFamily=Helvetica;fontSize=12;fontColor=default;" vertex="1" parent="PrRYFuYAHpO90THGvWZs-77">
          <mxGeometry x="11.851851851851851" y="57.6" width="94.81481481481481" height="94.81481481481481" as="geometry" />
        </mxCell>
        <mxCell id="PrRYFuYAHpO90THGvWZs-82" value="" style="ellipse;whiteSpace=wrap;html=1;fillColor=none;aspect=fixed;" vertex="1" parent="PrRYFuYAHpO90THGvWZs-77">
          <mxGeometry x="59.25925925925925" y="57.6" width="94.81481481481481" height="94.81481481481481" as="geometry" />
        </mxCell>
        <mxCell id="PrRYFuYAHpO90THGvWZs-83" value="" style="ellipse;whiteSpace=wrap;html=1;fillColor=#FF66B3;aspect=fixed;" vertex="1" parent="PrRYFuYAHpO90THGvWZs-77">
          <mxGeometry x="68.1874074074074" y="62.99999999999999" width="4.7407407407407405" height="4.7407407407407405" as="geometry" />
        </mxCell>
        <mxCell id="PrRYFuYAHpO90THGvWZs-84" value="" style="group" vertex="1" connectable="0" parent="1">
          <mxGeometry x="590" y="40" width="160" height="160" as="geometry" />
        </mxCell>
        <mxCell id="PrRYFuYAHpO90THGvWZs-85" value="" style="ellipse;whiteSpace=wrap;html=1;fillColor=none;aspect=fixed;strokeColor=#b85450;strokeWidth=3;align=center;verticalAlign=middle;fontFamily=Helvetica;fontSize=12;fontColor=default;" vertex="1" parent="PrRYFuYAHpO90THGvWZs-84">
          <mxGeometry y="25.6" width="94.81481481481481" height="94.81481481481481" as="geometry" />
        </mxCell>
        <mxCell id="PrRYFuYAHpO90THGvWZs-86" value="" style="ellipse;whiteSpace=wrap;html=1;fillColor=none;aspect=fixed;strokeColor=#b85450;strokeWidth=3;" vertex="1" parent="PrRYFuYAHpO90THGvWZs-84">
          <mxGeometry x="29.629629629629626" width="94.81481481481481" height="94.81481481481481" as="geometry" />
        </mxCell>
        <mxCell id="PrRYFuYAHpO90THGvWZs-87" value="" style="ellipse;whiteSpace=wrap;html=1;fillColor=none;aspect=fixed;" vertex="1" parent="PrRYFuYAHpO90THGvWZs-84">
          <mxGeometry x="65.18518518518518" y="25.6" width="94.81481481481481" height="94.81481481481481" as="geometry" />
        </mxCell>
        <mxCell id="PrRYFuYAHpO90THGvWZs-88" value="" style="ellipse;whiteSpace=wrap;html=1;fillColor=none;aspect=fixed;strokeColor=#b85450;strokeWidth=3;align=center;verticalAlign=middle;fontFamily=Helvetica;fontSize=12;fontColor=default;" vertex="1" parent="PrRYFuYAHpO90THGvWZs-84">
          <mxGeometry x="11.851851851851851" y="57.6" width="94.81481481481481" height="94.81481481481481" as="geometry" />
        </mxCell>
        <mxCell id="PrRYFuYAHpO90THGvWZs-89" value="" style="ellipse;whiteSpace=wrap;html=1;fillColor=none;aspect=fixed;" vertex="1" parent="PrRYFuYAHpO90THGvWZs-84">
          <mxGeometry x="59.25925925925925" y="57.6" width="94.81481481481481" height="94.81481481481481" as="geometry" />
        </mxCell>
        <mxCell id="PrRYFuYAHpO90THGvWZs-90" value="" style="ellipse;whiteSpace=wrap;html=1;fillColor=#FF66B3;aspect=fixed;" vertex="1" parent="PrRYFuYAHpO90THGvWZs-84">
          <mxGeometry x="68.1874074074074" y="62.99999999999999" width="4.7407407407407405" height="4.7407407407407405" as="geometry" />
        </mxCell>
        <mxCell id="PrRYFuYAHpO90THGvWZs-91" value="" style="group" vertex="1" connectable="0" parent="1">
          <mxGeometry x="590" y="200" width="160" height="160" as="geometry" />
        </mxCell>
        <mxCell id="PrRYFuYAHpO90THGvWZs-92" value="" style="ellipse;whiteSpace=wrap;html=1;fillColor=none;aspect=fixed;strokeColor=#b85450;strokeWidth=3;align=center;verticalAlign=middle;fontFamily=Helvetica;fontSize=12;fontColor=default;" vertex="1" parent="PrRYFuYAHpO90THGvWZs-91">
          <mxGeometry y="25.6" width="94.81481481481481" height="94.81481481481481" as="geometry" />
        </mxCell>
        <mxCell id="PrRYFuYAHpO90THGvWZs-93" value="" style="ellipse;whiteSpace=wrap;html=1;fillColor=none;aspect=fixed;strokeColor=#b85450;strokeWidth=3;align=center;verticalAlign=middle;fontFamily=Helvetica;fontSize=12;fontColor=default;" vertex="1" parent="PrRYFuYAHpO90THGvWZs-91">
          <mxGeometry x="29.629629629629626" width="94.81481481481481" height="94.81481481481481" as="geometry" />
        </mxCell>
        <mxCell id="PrRYFuYAHpO90THGvWZs-94" value="" style="ellipse;whiteSpace=wrap;html=1;fillColor=none;aspect=fixed;strokeColor=#b85450;strokeWidth=3;align=center;verticalAlign=middle;fontFamily=Helvetica;fontSize=12;fontColor=default;" vertex="1" parent="PrRYFuYAHpO90THGvWZs-91">
          <mxGeometry x="65.18518518518518" y="25.6" width="94.81481481481481" height="94.81481481481481" as="geometry" />
        </mxCell>
        <mxCell id="PrRYFuYAHpO90THGvWZs-95" value="" style="ellipse;whiteSpace=wrap;html=1;fillColor=none;aspect=fixed;" vertex="1" parent="PrRYFuYAHpO90THGvWZs-91">
          <mxGeometry x="11.851851851851851" y="57.6" width="94.81481481481481" height="94.81481481481481" as="geometry" />
        </mxCell>
        <mxCell id="PrRYFuYAHpO90THGvWZs-96" value="" style="ellipse;whiteSpace=wrap;html=1;fillColor=none;aspect=fixed;" vertex="1" parent="PrRYFuYAHpO90THGvWZs-91">
          <mxGeometry x="59.25925925925925" y="57.6" width="94.81481481481481" height="94.81481481481481" as="geometry" />
        </mxCell>
        <mxCell id="PrRYFuYAHpO90THGvWZs-97" value="" style="ellipse;whiteSpace=wrap;html=1;fillColor=#FF66B3;aspect=fixed;" vertex="1" parent="PrRYFuYAHpO90THGvWZs-91">
          <mxGeometry x="68.1874074074074" y="62.99999999999999" width="4.7407407407407405" height="4.7407407407407405" as="geometry" />
        </mxCell>
        <mxCell id="PrRYFuYAHpO90THGvWZs-98" value="" style="group" vertex="1" connectable="0" parent="1">
          <mxGeometry x="590" y="360" width="160" height="160" as="geometry" />
        </mxCell>
        <mxCell id="PrRYFuYAHpO90THGvWZs-99" value="" style="ellipse;whiteSpace=wrap;html=1;fillColor=none;aspect=fixed;" vertex="1" parent="PrRYFuYAHpO90THGvWZs-98">
          <mxGeometry y="25.6" width="94.81481481481481" height="94.81481481481481" as="geometry" />
        </mxCell>
        <mxCell id="PrRYFuYAHpO90THGvWZs-100" value="" style="ellipse;whiteSpace=wrap;html=1;fillColor=none;aspect=fixed;strokeColor=#b85450;strokeWidth=3;align=center;verticalAlign=middle;fontFamily=Helvetica;fontSize=12;fontColor=default;" vertex="1" parent="PrRYFuYAHpO90THGvWZs-98">
          <mxGeometry x="29.629629629629626" width="94.81481481481481" height="94.81481481481481" as="geometry" />
        </mxCell>
        <mxCell id="PrRYFuYAHpO90THGvWZs-101" value="" style="ellipse;whiteSpace=wrap;html=1;fillColor=none;aspect=fixed;strokeColor=#b85450;strokeWidth=3;align=center;verticalAlign=middle;fontFamily=Helvetica;fontSize=12;fontColor=default;" vertex="1" parent="PrRYFuYAHpO90THGvWZs-98">
          <mxGeometry x="65.18518518518518" y="25.6" width="94.81481481481481" height="94.81481481481481" as="geometry" />
        </mxCell>
        <mxCell id="PrRYFuYAHpO90THGvWZs-102" value="" style="ellipse;whiteSpace=wrap;html=1;fillColor=none;aspect=fixed;strokeColor=#b85450;strokeWidth=3;align=center;verticalAlign=middle;fontFamily=Helvetica;fontSize=12;fontColor=default;" vertex="1" parent="PrRYFuYAHpO90THGvWZs-98">
          <mxGeometry x="11.851851851851851" y="57.6" width="94.81481481481481" height="94.81481481481481" as="geometry" />
        </mxCell>
        <mxCell id="PrRYFuYAHpO90THGvWZs-103" value="" style="ellipse;whiteSpace=wrap;html=1;fillColor=none;aspect=fixed;" vertex="1" parent="PrRYFuYAHpO90THGvWZs-98">
          <mxGeometry x="59.25925925925925" y="57.6" width="94.81481481481481" height="94.81481481481481" as="geometry" />
        </mxCell>
        <mxCell id="PrRYFuYAHpO90THGvWZs-104" value="" style="ellipse;whiteSpace=wrap;html=1;fillColor=#FF66B3;aspect=fixed;" vertex="1" parent="PrRYFuYAHpO90THGvWZs-98">
          <mxGeometry x="68.1874074074074" y="62.99999999999999" width="4.7407407407407405" height="4.7407407407407405" as="geometry" />
        </mxCell>
        <mxCell id="PrRYFuYAHpO90THGvWZs-105" value="" style="group" vertex="1" connectable="0" parent="1">
          <mxGeometry x="590" y="520" width="160" height="160" as="geometry" />
        </mxCell>
        <mxCell id="PrRYFuYAHpO90THGvWZs-106" value="" style="ellipse;whiteSpace=wrap;html=1;fillColor=none;aspect=fixed;strokeColor=#b85450;strokeWidth=3;align=center;verticalAlign=middle;fontFamily=Helvetica;fontSize=12;fontColor=default;" vertex="1" parent="PrRYFuYAHpO90THGvWZs-105">
          <mxGeometry y="25.6" width="94.81481481481481" height="94.81481481481481" as="geometry" />
        </mxCell>
        <mxCell id="PrRYFuYAHpO90THGvWZs-107" value="" style="ellipse;whiteSpace=wrap;html=1;fillColor=none;aspect=fixed;" vertex="1" parent="PrRYFuYAHpO90THGvWZs-105">
          <mxGeometry x="29.629629629629626" width="94.81481481481481" height="94.81481481481481" as="geometry" />
        </mxCell>
        <mxCell id="PrRYFuYAHpO90THGvWZs-108" value="" style="ellipse;whiteSpace=wrap;html=1;fillColor=none;aspect=fixed;strokeColor=#b85450;strokeWidth=3;align=center;verticalAlign=middle;fontFamily=Helvetica;fontSize=12;fontColor=default;" vertex="1" parent="PrRYFuYAHpO90THGvWZs-105">
          <mxGeometry x="65.18518518518518" y="25.6" width="94.81481481481481" height="94.81481481481481" as="geometry" />
        </mxCell>
        <mxCell id="PrRYFuYAHpO90THGvWZs-109" value="" style="ellipse;whiteSpace=wrap;html=1;fillColor=none;aspect=fixed;strokeColor=#b85450;strokeWidth=3;align=center;verticalAlign=middle;fontFamily=Helvetica;fontSize=12;fontColor=default;" vertex="1" parent="PrRYFuYAHpO90THGvWZs-105">
          <mxGeometry x="11.851851851851851" y="57.6" width="94.81481481481481" height="94.81481481481481" as="geometry" />
        </mxCell>
        <mxCell id="PrRYFuYAHpO90THGvWZs-110" value="" style="ellipse;whiteSpace=wrap;html=1;fillColor=none;aspect=fixed;" vertex="1" parent="PrRYFuYAHpO90THGvWZs-105">
          <mxGeometry x="59.25925925925925" y="57.6" width="94.81481481481481" height="94.81481481481481" as="geometry" />
        </mxCell>
        <mxCell id="PrRYFuYAHpO90THGvWZs-111" value="" style="ellipse;whiteSpace=wrap;html=1;fillColor=#FF66B3;aspect=fixed;" vertex="1" parent="PrRYFuYAHpO90THGvWZs-105">
          <mxGeometry x="68.1874074074074" y="62.99999999999999" width="4.7407407407407405" height="4.7407407407407405" as="geometry" />
        </mxCell>
        <mxCell id="PrRYFuYAHpO90THGvWZs-112" value="" style="group" vertex="1" connectable="0" parent="1">
          <mxGeometry x="590" y="680" width="160" height="160" as="geometry" />
        </mxCell>
        <mxCell id="PrRYFuYAHpO90THGvWZs-113" value="" style="ellipse;whiteSpace=wrap;html=1;fillColor=none;aspect=fixed;strokeColor=#d79b00;strokeWidth=3;align=center;verticalAlign=middle;fontFamily=Helvetica;fontSize=12;fontColor=default;" vertex="1" parent="PrRYFuYAHpO90THGvWZs-112">
          <mxGeometry y="25.6" width="94.81481481481481" height="94.81481481481481" as="geometry" />
        </mxCell>
        <mxCell id="PrRYFuYAHpO90THGvWZs-114" value="" style="ellipse;whiteSpace=wrap;html=1;fillColor=none;aspect=fixed;strokeColor=#d79b00;strokeWidth=3;align=center;verticalAlign=middle;fontFamily=Helvetica;fontSize=12;fontColor=default;" vertex="1" parent="PrRYFuYAHpO90THGvWZs-112">
          <mxGeometry x="29.629629629629626" width="94.81481481481481" height="94.81481481481481" as="geometry" />
        </mxCell>
        <mxCell id="PrRYFuYAHpO90THGvWZs-115" value="" style="ellipse;whiteSpace=wrap;html=1;fillColor=none;aspect=fixed;strokeColor=#d79b00;strokeWidth=3;align=center;verticalAlign=middle;fontFamily=Helvetica;fontSize=12;fontColor=default;" vertex="1" parent="PrRYFuYAHpO90THGvWZs-112">
          <mxGeometry x="65.18518518518518" y="25.6" width="94.81481481481481" height="94.81481481481481" as="geometry" />
        </mxCell>
        <mxCell id="PrRYFuYAHpO90THGvWZs-116" value="" style="ellipse;whiteSpace=wrap;html=1;fillColor=none;aspect=fixed;strokeColor=#d79b00;strokeWidth=3;" vertex="1" parent="PrRYFuYAHpO90THGvWZs-112">
          <mxGeometry x="11.851851851851851" y="57.6" width="94.81481481481481" height="94.81481481481481" as="geometry" />
        </mxCell>
        <mxCell id="PrRYFuYAHpO90THGvWZs-117" value="" style="ellipse;whiteSpace=wrap;html=1;fillColor=none;aspect=fixed;" vertex="1" parent="PrRYFuYAHpO90THGvWZs-112">
          <mxGeometry x="59.25925925925925" y="57.6" width="94.81481481481481" height="94.81481481481481" as="geometry" />
        </mxCell>
        <mxCell id="PrRYFuYAHpO90THGvWZs-118" value="" style="ellipse;whiteSpace=wrap;html=1;fillColor=#FF66B3;aspect=fixed;" vertex="1" parent="PrRYFuYAHpO90THGvWZs-112">
          <mxGeometry x="68.1874074074074" y="62.99999999999999" width="4.7407407407407405" height="4.7407407407407405" as="geometry" />
        </mxCell>
      </root>
    </mxGraphModel>
  </diagram>
</mxfile>
